<svg xmlns="http://www.w3.org/2000/svg" width="150" height="60" viewBox="0 0 150 60"><defs><style>.a{fill:#002e5d;}.b{fill:#fff;}</style></defs><rect class="a" width="150" height="60"/><g transform="translate(17.39 13.688)"><path class="b" d="M96.54,78.033V72.45a4.64,4.64,0,0,0-.062-.771,5.721,5.721,0,0,0,.771.063h4.208c3.208,0,5.083.5,5.083,3.4,0,1.9-1.167,3.583-4.958,3.583H97.248c-.375,0-.75.042-.75.042A6.583,6.583,0,0,0,96.54,78.033Zm0,12.812V84.387a4.226,4.226,0,0,0-.062-.75s.375.042.75.042h3.563c2.833,0,6.313,0,6.313,3.938,0,2.917-2.479,3.917-5.833,3.917H97.227a5.23,5.23,0,0,0-.75.063A5.632,5.632,0,0,0,96.54,90.846ZM86.352,68.283V95.137c0,.875.042,1.188-.562,1.563a5.824,5.824,0,0,1-2.208.6h-.021c-.1.021-.083.4.021.4h21.729c9.167,0,13.021-3.646,13.021-9.312,0-4.187-1.958-6.75-5.813-7.729a.065.065,0,0,1,0-.125c2.458-.771,4.729-2.542,4.729-6.917,0-5.917-4-7.917-12.729-7.917H83.561c-.1,0-.125.375-.021.4h.021a5.714,5.714,0,0,1,2.208.6C86.394,67.117,86.352,67.429,86.352,68.283Z" transform="translate(-83.471 -65.7)"/><path class="b" d="M487,68.362c0-.875-.042-1.167.562-1.562a5.824,5.824,0,0,1,2.208-.6h.021c.1-.021.083-.4-.021-.4H473.749c-.1,0-.125.375-.021.4h.021a4.415,4.415,0,0,1,2.083.6c.625.375.563.688.563,1.562V84.508c0,3.688-2.1,6.5-6.292,6.5s-6.292-2.833-6.292-6.5V68.362c0-.875-.042-1.187.563-1.562a4.844,4.844,0,0,1,2.083-.6h.021c.1-.021.083-.4-.021-.4H451.332c-.1,0-.083.375,0,.4h.021a1.962,1.962,0,0,1,1.271.354,2.077,2.077,0,0,1,.583,1.812V84.237c0,7.646,4.188,14.146,16.9,14.146s16.9-6.5,16.9-14.146V68.362Z" transform="translate(-374.638 -65.779)"/><path class="b" d="M279.479,97.879c.1,0,.125-.375.021-.4h-.021a5.715,5.715,0,0,1-2.208-.6c-.625-.375-.562-.687-.562-1.563V85.129l11.083-16.458a7.881,7.881,0,0,1,1.5-1.792c.083-.062.292-.208.417-.292A2.06,2.06,0,0,1,290.9,66.3h.021c.1-.021.125-.4.021-.4H276c-.125,0-.1.4,0,.4h.021c.729,0,1.625,0,1.479,1.042-.083,1.021-4.4,7.25-5.917,9.6a2.6,2.6,0,0,0-.458,1.1,2.705,2.705,0,0,0-.5-1.1c-2.146-3.187-5.792-8.354-5.9-9.6-.083-1.083.75-1.042,1.479-1.042h.021c.1,0,.146-.4.021-.4H250.563c-.083,0-.083.354,0,.4h.021a4.088,4.088,0,0,1,1.813.4,2.233,2.233,0,0,1,.4.271,7.161,7.161,0,0,1,1.417,1.708l11.063,16.4V95.338c0,.875.042,1.188-.562,1.563a5.824,5.824,0,0,1-2.208.6h-.021c-.1.021-.083.4.021.4Z" transform="translate(-215.702 -65.858)"/></g></svg>