<svg id="Layer_1" data-name="Layer 1" xmlns="http://www.w3.org/2000/svg" xmlns:xlink="http://www.w3.org/1999/xlink" viewBox="0 0 504 504"><defs><style>.cls-1{fill:none;}.cls-2{clip-path:url(#clip-path);}.cls-3{fill:#fff;}.cls-4{fill:#b79257;}.cls-5{fill:#002957;}</style><clipPath id="clip-path"><rect class="cls-1" x="4" y="5" width="492" height="492"/></clipPath></defs><title>Medallion</title><g class="cls-2"><path class="cls-3" d="M250,6.46C115,6.46,5.47,116,5.47,251S115,495.53,250,495.53,494.52,386,494.52,251,385.05,6.46,250,6.46"/><path class="cls-4" d="M250,497C114.36,497,4,386.64,4,251S114.36,5,250,5,496,115.35,496,251,385.64,497,250,497M250,7.93C116,7.93,6.94,117,6.94,251S116,494.06,250,494.06,493.05,385,493.05,251,384,7.93,250,7.93"/><path class="cls-5" d="M260.16,18.14C131.61,12.53,22.82,112.19,17.21,240.77S111.28,478.1,239.83,483.69s237.34-94.05,242.95-222.6-94-237.34-222.62-242.95"/><path class="cls-3" d="M250,92a158.94,158.94,0,1,0,158.94,159A158.94,158.94,0,0,0,250,92"/><path class="cls-4" d="M250,400.76c-82.64,0-149.87-67.24-149.87-149.88S167.36,101,250,101s149.87,67.24,149.87,149.88S332.64,400.76,250,400.76M250,104c-81,0-146.93,65.91-146.93,146.93S169,397.82,250,397.82,396.93,331.9,396.93,250.88,331,104,250,104"/><path class="cls-5" d="M221.41,363.85c-1.48,0-3.84,0-4.9.14-.21.07-.11-.67,0-.67,2.19-.25,3.14-.32,3.14-3.25v-8.89c0-2.93-1-3-3.14-3.28-.11,0-.21-.71,0-.64,1.06.14,3.42.14,4.9.14,1.06,0,3.39,0,4.14-.14.21-.07.17.64.07.64-2.3.21-3.11.52-3.11,3.28v8.89c0,2.76.81,3,3.11,3.25.1,0,.14.74-.07.67-.75-.11-3.08-.14-4.14-.14"/><path class="cls-5" d="M232.39,358.56c0-2.62,2-4.88,5.4-6.29-2.26-1.44-4.16-3-4.16-5.68,0-3.71,3-6.28,6.81-6.28,3.18,0,5.79,2.25,5.79,5.15,0,2.47-1.48,4.13-4.38,5.68,2.51,1.56,4.87,3.32,4.87,6.43,0,3.81-3.07,6.81-7.48,6.81-3.67,0-6.85-2.4-6.85-5.82m2.72,0a4.5,4.5,0,0,0,4.55,4.72c2.93,0,4.63-1.83,4.63-4.2,0-3-2.72-4.55-5.37-6.14-2.5,1.24-3.81,2.9-3.81,5.62M236.17,345c0,2.58,2.22,4,4.62,5.48a5.63,5.63,0,0,0,2.93-4.88,4,4,0,0,0-3.91-4.27,3.46,3.46,0,0,0-3.64,3.67"/><path class="cls-5" d="M255.51,369.22c4.17-7,8.12-14.16,10.84-19.1h-7.24c-3.35,0-3.92.57-4.06,2.72,0,.07-.63.07-.63,0a35.19,35.19,0,0,1,.35-4.94c.11-.39.25-.56.67-.56,1.13,0,3.43.1,5.68.1,3.07,0,4.84,0,7.06-.18.15,0,.57.74.46.92-3.21,5.86-8.11,15.18-11.5,21.75-.18.31-1.84-.36-1.63-.67"/><path class="cls-5" d="M278,349.34c-1,0-1.8,1.27-1.8,2.51,0,1.09.35,1.69,4.66,3.74,3.14,1.48,4.52,3.63,4.52,6,0,3.81-3.53,7-10.27,8.33-.21,0-.29-.64-.21-.64,3.74-.95,7.62-3.17,7.62-6.78,0-2-.85-3.28-3.95-4.69-2.58-1.16-3.92-2.19-3.92-4.17a11.94,11.94,0,0,1,.77-3.39c1.1-2.61,2.12-3.63,3.46-3.63,1.13,0,2.69.95,4.52.95.85,0,1.17-.49,1.48-1.9,0-.08.64-.11.64.07-.07,3.46-1.06,4.62-2.68,4.62-1.84,0-3.18-1.06-4.84-1.06"/><rect class="cls-3" x="75.11" y="344.18" width="9.61" height="9.61" transform="translate(-277.86 335.85) rotate(-75)"/><path class="cls-3" d="M77.75,310.88a63.65,63.65,0,0,0,2.33,6.47c.22.51-.94.54-1,.38-1.5-3.39-2.31-3.72-7.37-2.09l-12,3.88c-5,1.63-5.52,2.37-4.81,6,0,.16-1,.78-1,.22a39.58,39.58,0,0,0-1.63-5.94c-.31-1-1.31-3.51-1.73-4.84-1.46-4.52-.67-9.36,3.31-10.65,2.24-.72,5.37.62,7.25,3.36-1.2-4.66.44-8.48,3.9-9.59,4.47-1.45,9.39,1.61,11.34,7.67.43,1.33,1.15,4.09,1.47,5.11m-15.32,2c-1.57-4.84-3.61-5.53-6.48-4.6-3.94,1.27-4.71,3.81-3.61,7.21.17.53.3.55.49,1.14a25.94,25.94,0,0,0,5.47-1.42l12.18-3.93c4.31-1.39,5.25-1.57,4.29-4.55-1.42-4.42-3.71-5.85-7.43-4.65-3.89,1.25-6.09,5-3.69,10.41.05.16-1.17.56-1.22.39"/><path class="cls-3" d="M58.28,281.71a13.62,13.62,0,0,1,.18,1.61l4.64-.68c5-.75,5.92-1.28,5.69-5.09,0-.16,1.12-.45,1.06-.1a58.92,58.92,0,0,0,.65,5.89,63.67,63.67,0,0,0,1.25,6.88c.16.32-1,.32-1,.16-.93-3.54-1.69-4.1-6.94-3.32l-12.49,1.86c-4.81.71-5.73,1.75-5.45,3.69a9.35,9.35,0,0,0,.4,1.52c.14.21-.87.64-1,.32-.82-1.69-1.77-6.58-2.44-11.11-1.11-7.47.67-11.8,5.1-12.46,2.76-.41,5.76,1.18,7.63,4.24,5.31-3.06,12.16-9.44,11.45-14.25,0-.17,1-.49,1.05-.16,1.34,9.07-4.3,15.16-10.56,18a22.61,22.61,0,0,1,.8,3M44.81,285a25.54,25.54,0,0,0,5.41-.47l6.63-1c-.07-.49-.06-.83-.17-1.55-.81-5.48-3.23-7.32-7-6.76-4.65.69-5.91,3.59-5.2,8.4a10.88,10.88,0,0,0,.32,1.37"/><path class="cls-3" d="M67.7,251.4a65.38,65.38,0,0,0,.26,7c.12.45-1.06.18-1.06.07-.41-3.69-1.14-4.24-6.4-4.22l-12.63.08c-5.31,0-6,.59-6.4,4.28,0,.11-1.12.34-1.07-.1a48.91,48.91,0,0,0,.24-6.94,57.19,57.19,0,0,0-.31-5.86c-.06-.45,1.06-.23,1.06-.12.31,3.85,1.48,4.24,6.46,4.21l12.63-.07c5,0,6-.43,6.35-4.28,0-.12,1.11-.35,1.06.1-.16,1.29-.2,4.19-.19,5.87"/><path class="cls-3" d="M69,212.42a22.57,22.57,0,0,1,1.55,11.5c-1.33,9.58-8.57,14.55-15.77,13.55-7.58-1.06-13.92-8.66-12.59-18.18.55-3.93,3-8,3.8-8.62.32-.29,3.92-.18,6.49.4.28,0,0,1.08-.09,1.06-3.3-.23-7.83,2.75-8.63,8.45-.86,6.2,2.65,11,10.12,12,9,1.26,14.14-3.45,15-9.42.6-4.32-.36-5.13-.93-5.44a10.78,10.78,0,0,0-2.62-.65c-5.32-.74-5.56-.6-6.51,3.78,0,.16-1.15.18-1-.15.41-1.75.95-4.83,1.29-7.27.24-1.71.53-4.21.55-5.51-.07-.35,1-.08,1,.09-.19,3.81.31,3.88,5.57,4.61a4.09,4.09,0,0,0,2.85-.22"/><path class="cls-3" d="M79.26,187.28c0,.28-1.06-.19-1-.35.7-3.19.17-4-4.74-5.74l-5.39-1.88-4.93,14.15,5.39,1.87c4.64,1.63,5.89,1.59,7.26-1.49.06-.15,1.2.13,1,.41-.6,1.21-1.46,3.51-2,5.2a71.23,71.23,0,0,0-2.2,7c0,.35-1.06-.19-1-.35.93-4.18.53-4.73-4.48-6.48l-11.93-4.16c-5-1.75-5.78-1.6-7.6,2.27-.05.15-1.2-.13-1-.41a57.87,57.87,0,0,0,2.65-6.77,56,56,0,0,0,1.58-5.37c0-.35,1.08.14,1,.3-.84,3.26.12,4.07,4.82,5.71l5,1.74,4.93-14.14-5-1.75c-5-1.73-6-1.42-7.34,1.53-.06.16-1.2-.12-1.05-.37a45.73,45.73,0,0,0,2.46-6.07c.61-1.74,1.57-4.83,1.84-6.1,0-.36,1.11,0,1,.29-1.12,4.23-.19,4.79,4.56,6.45L75,176.91c4.75,1.66,5.72,1.76,7.52-2.22.09-.27,1.2.12,1,.4-.58,1.16-1.7,4.2-2.31,5.94a56.88,56.88,0,0,0-1.94,6.25"/><path class="cls-3" d="M93.85,157c-.08.35-1-.38-.92-.53.76-1.76,1.59-2.63.62-3.19s-3.07-.95-5.27-1.39l-3.06-.62-4.56,7.83,1.92,2.6c1.59,2.16,2.68,3.5,3.65,4.06.82.48,1.36-.44,2.4-1.9.14-.24,1.15.35.89.58a40.69,40.69,0,0,0-2.61,4.05,28.44,28.44,0,0,0-2.14,4.12c-.12.32-1-.39-.92-.53,1.21-2.53.64-4.55-2.35-8.74L68.62,145.12c-.18-.24,0-.75.4-.68l21.58,3.24c4.3.62,6.48,1,8.79-2.32.09-.15,1.16.34.89.58a54.24,54.24,0,0,0-3,4.72A68.11,68.11,0,0,0,93.85,157m-14.3.68L83.46,151l-9.86-1.72Z"/><path class="cls-3" d="M118,125.17c-.14.33-1-.53-.83-.66,1.9-2.64,1.69-3.58-2.27-7l-11.13-9.61,10.13,21.74c.13.27-.32.69-.56.63L90.26,123.7l10.5,9.65c3.34,3.05,4.69,3.8,7.47,1.18.11-.12,1.06.57.75.75a38.82,38.82,0,0,0-3.21,3.27,48.77,48.77,0,0,0-3.81,4.62c-.14.33-.9-.58-.79-.7,2.16-3,1.65-4.22-1.86-7.5l-10.8-10c-1.42-1.34-4.23-1.29-6.6.86-.11.13-1.06-.49-.75-.67a79.92,79.92,0,0,0,6.23-6.57l22.37,6.13L103.55,112a65,65,0,0,0-3.76-7.38,59.89,59.89,0,0,0,5.89-7c.14-.32.9.51.83.59-2.64,3.56-2.08,4.44,1.75,7.7l9.59,8.23c3.83,3.26,4.84,3.63,8,.64.12-.12,1.07.57.76.75-1,.89-3.18,3.23-4.37,4.57a58.85,58.85,0,0,0-4.21,5.07"/><path class="cls-3" d="M146.74,84.1l3.46,5.42c3.2,5,3.63,4.84,7,3.07.14-.08.86.84.52.93-1.22.58-3.6,2-5.11,3a67.68,67.68,0,0,0-5.77,4c-.22.27-.71-.81-.57-.9,2.82-2.33,3.44-2.4.1-7.62l-3.1-4.85L137,84.23c-6.69-3.09-8-3.3-11.16-1.68-.14.09-.92-.81-.58-.9a54.9,54.9,0,0,0,5.54-3.27c1.5-1,3.78-2.49,4.78-3.33.22-.27.76.78.61.87-2.91,2.19-1.75,2.65,4.74,5.53L145,83.28l.29-5.76c.37-7,0-7-3.09-5.46-.14.09-1-.77-.52-.92a47.27,47.27,0,0,0,5.15-3,29.57,29.57,0,0,0,3.41-2.44c.23-.28.77.77.62.86-2.91,2.19-3.33,3.4-3.71,10.07Z"/><path class="cls-3" d="M162.31,75.32c-2.89-7.1.69-16.27,9.18-19.72,8-3.24,16.54.46,19.29,7.24,2.86,7-.66,16.2-9.2,19.67-7.92,3.22-16.52-.41-19.27-7.19M166,71.89c3.45,8.5,10.68,10.69,15.86,8.58,5.54-2.25,8.19-7.3,5.37-14.24-3.45-8.5-10.77-10.77-16-8.67-5.54,2.25-8.12,7.34-5.28,14.33"/><path class="cls-3" d="M225.33,59.78c1.09,5.6-2.22,11.13-9.57,12.56-6.37,1.24-12.58-1.71-13.86-8.29L200,54.39c-1-5.21-1.75-5.81-5.4-5.55-.17,0-.49-1-.14-1a53.07,53.07,0,0,0,6.85-1.1c1.75-.34,4.48-.93,5.77-1.35.31-.18.52.92.25,1-3.67,1.06-3.79,2.22-2.83,7.16l1.7,8.72c1.25,6.42,6,8.46,10.2,7.64,5.54-1.08,7.87-4.6,6.77-10.26l-1.9-9.76c-.92-4.72-1.68-5.43-5.33-5.17-.29,0-.49-1-.14-1a32.41,32.41,0,0,0,5.42-.83A41.84,41.84,0,0,0,226,41.72c.43-.14.41.94.3,1-3.72,1.07-3.81,2.34-3,6.78Z"/><path class="cls-3" d="M264.32,61.13c0,2.07,0,5.87.22,7.66,0,.17-.67.39-1,0L242.85,47.5,242.75,61c0,4.47.34,6,4.2,6.4.11,0,.21,1.18-.12,1.06a37.13,37.13,0,0,0-4.53-.25,48.64,48.64,0,0,0-6,.17c-.28.06-.16-1.06,0-1.06,3.69-.36,4.26-1.59,4.3-6.34l.11-14.36c0-1.9-3.49-4.5-5.39-4.74-.17,0-.27-1.17.06-1.06a59.49,59.49,0,0,0,7.38.39l19.35,20.33.1-13c0-4.8-.51-6-4.14-6.46-.28-.06-.27-1.17.06-1.06a32.22,32.22,0,0,0,5.53.32,38.82,38.82,0,0,0,4.92-.24c.56,0,.27,1.06.16,1.06-3.91.25-4.26,1.93-4.29,6.4Z"/><path class="cls-3" d="M298.9,72a22.47,22.47,0,0,1-11.57.9c-9.49-1.88-14-9.39-12.63-16.51,1.49-7.51,9.44-13.41,18.87-11.54,3.89.77,7.8,3.48,8.38,4.28.28.34,0,3.93-.77,6.46-.05.28-1.07,0-1.05-.15.42-3.28-2.29-8-7.94-9.09-6.14-1.22-11.11,2-12.58,9.41-1.77,8.94,2.64,14.31,8.56,15.49,4.28.84,5.14-.07,5.48-.63a11,11,0,0,0,.8-2.58c1-5.26.92-5.51-3.41-6.71-.16,0-.11-1.16.21-1,1.72.51,4.77,1.23,7.18,1.71a55,55,0,0,0,5.48.85c.35,0,0,1-.15,1-3.79-.41-3.88.09-4.92,5.29A4.08,4.08,0,0,0,298.9,72"/><path class="cls-3" d="M346.35,83.81c-2.53,5.11-8.52,7.51-15.23,4.19-5.81-2.87-9-9-6-15l4.36-8.82c2.36-4.75,2.13-5.68-.93-7.69-.15-.07.25-1.13.5-.88a53.17,53.17,0,0,0,6.11,3.28c1.6.79,4.13,2,5.41,2.43.35,0-.15,1-.4.92-3.55-1.39-4.35-.53-6.58,4l-3.94,8c-2.9,5.86-.38,10.35,3.47,12.26,5.07,2.51,9.06,1.11,11.61-4l4.41-8.91c2.14-4.31,2-5.34-1.1-7.35-.23-.17.25-1.12.5-.87a32.52,32.52,0,0,0,4.8,2.63,44.87,44.87,0,0,0,4.46,2c.43.15-.24,1-.34,1-3.61-1.41-4.45-.45-6.46,3.61Z"/><path class="cls-3" d="M376.54,108.56c-1.27,1.63-3.56,4.67-4.48,6.22-.1.13-.77-.11-.83-.58l-3.48-29.51-8.26,10.64c-2.74,3.53-3.39,5-.55,7.63.09.07-.54,1.07-.74.78a36.68,36.68,0,0,0-3.44-3,49.54,49.54,0,0,0-4.9-3.52c-.26-.13.52-.94.65-.84,3.15,2,4.35,1.32,7.26-2.43l8.81-11.35c1.16-1.5,0-5.69-1.41-7-.13-.1.5-1.1.7-.81a57.13,57.13,0,0,0,5.62,4.79l3,27.9,8-10.28c2.95-3.8,3.26-5.11.63-7.65-.18-.22.5-1.1.7-.81a31.86,31.86,0,0,0,4.2,3.62,40.12,40.12,0,0,0,4.06,2.79c.47.3-.43,1-.52,1-3.26-2.18-4.56-1.06-7.3,2.47Z"/><path class="cls-3" d="M384,126.51a63.89,63.89,0,0,0-4.94-5c-.38-.25.66-.85.74-.77,2.81,2.43,3.72,2.34,7.56-1.25l9.22-8.63c3.88-3.62,4-4.53,1.8-7.49-.08-.08.59-1,.85-.64a51.07,51.07,0,0,0,4.53,5.25c1.14,1.23,3.21,3.27,4.21,4.1.35.28-.62.89-.7.8-2.84-2.62-4-2.11-7.59,1.29l-9.23,8.63c-3.63,3.4-4.14,4.41-1.75,7.45.07.09-.59,1-.85.65-.76-1-2.71-3.22-3.85-4.44"/><path class="cls-3" d="M400.4,147.77c-.17,0-.64-.44-.47-.77l11.56-18.81c2.61-4.27,3.21-6.25,1.52-9.16-.09-.14.77-1,.87-.61.63,1.2,2,3.32,3,4.75a54.69,54.69,0,0,0,4.35,5.75c.28.21-.64.85-.84.66-1.24-1.39-1.94-2.2-2.85-1.56a12.89,12.89,0,0,0-3.24,4l-7.85,12.89,14.78-2.94c3.33-.69,4.07-1,4.9-1.57s.54-1.47-.38-3.08c-.09-.14.78-.95.87-.61a39.34,39.34,0,0,0,2.52,4.11,22.48,22.48,0,0,0,2.88,3.65c.29.21-.74.79-.84.65-1.73-2-3.64-2.5-8.93-1.48Z"/><path class="cls-3" d="M418.7,180.19c-.68-1.41-1.62-3.87-3-6.69-1.84-3.83-4-8.42-5.6-11.14-.15-.3.88-.61.95-.46,2.3,3.61,3,3.72,7.76,1.42l11.38-5.47c4.79-2.3,5.22-2.94,3.79-7-.07-.16.91-.82,1-.49,1.1,2.94,3.18,7.4,5,11.23,1.3,2.72,2.67,5.29,4,7.51a10.62,10.62,0,0,0-2.74,1c-.4.19-1.54.68-1.76.85s-.61-.89-.51-.94c1.51-1.1,2-2.09-.32-7l-1.57-3.27a35.37,35.37,0,0,0-4.74,2l-4.63,2.23,1.21,2.52c2,4.23,2.28,4.49,4.09,4.12.1,0,.61.88.33,1a18,18,0,0,0-3.07,1.23l-2.16,1c0,.12-.56-.91-.52-.94,1.8-1.29,1.8-1.67-.13-5.7l-1.21-2.52-5,2.4c-4.83,2.32-5.17,2.79-4.34,4.5l.94,2c2.78,5.79,3.66,5.56,6.4,4.93.05,0,.53,1,.38,1.05-1,.31-3.69,1.09-4.57,1.21s-1.1,0-1.41-.63"/><path class="cls-3" d="M436.16,193.61a12.38,12.38,0,0,1-.41-1.57l-4.5,1.33c-4.82,1.43-5.68,2.09-4.92,5.83.05.16-1,.6-1,.25-.21-1.28-1-4-1.47-5.74a67.21,67.21,0,0,0-2.19-6.64c-.21-.29,1-.46,1-.3,1.4,3.37,2.23,3.82,7.33,2.32l12.11-3.58c4.66-1.38,5.43-2.54,4.87-4.42a9.18,9.18,0,0,0-.6-1.45c-.17-.18.77-.75.92-.45,1,1.56,2.66,6.27,4,10.66,2.14,7.24,1,11.78-3.31,13-2.68.8-5.88-.36-8.15-3.12-4.83,3.76-10.73,11-9.35,15.7.05.16-.92.63-1,.3-2.6-8.79,2.14-15.61,7.94-19.25a21.82,21.82,0,0,1-1.21-2.91M449,188.47a24.59,24.59,0,0,0-5.29,1.21l-6.43,1.9c.14.49.19.82.39,1.52,1.57,5.31,4.22,6.79,7.87,5.72,4.5-1.33,5.35-4.38,4-9a10.3,10.3,0,0,0-.51-1.3"/><path class="cls-3" d="M432.22,217.2c.14-.24,3.26-.5,6.22-.75.28,0,.3,1,.19,1-4.16.92-7.17,3.6-6.57,7.91.42,3,2.47,4.8,5.13,4.43,6.92-1,5.23-13.15,12.81-14.2,3.82-.53,8.23,2.35,8.94,7.44a10.13,10.13,0,0,1-.8,5.65c-.17.36-2.38,1.12-5.2,1.51-.17,0-.33-1.08-.16-1.11,3-.92,4.8-3.2,4.39-6.19-.37-2.61-1.91-4.37-4.46-4-6.64.92-4.81,12.86-12.78,14a8.58,8.58,0,0,1-9.7-7.63,11.55,11.55,0,0,1,2-8"/><path class="cls-3" d="M432.84,248.14a66,66,0,0,0-.35-7c-.11-.44,1.06-.18,1.07-.07.45,3.68,1.19,4.23,6.44,4.14l12.63-.22c5.31-.08,6-.66,6.35-4.35,0-.11,1.12-.36,1.07.09a51.68,51.68,0,0,0-.17,6.94c0,1.67.19,4.58.38,5.86.07.45-1.05.24-1.06.13-.34-3.85-1.52-4.22-6.49-4.14l-12.64.22c-5,.08-6,.49-6.29,4.35,0,.11-1.12.36-1.07-.09.15-1.29.15-4.2.13-5.87"/><path class="cls-3" d="M451.39,289.83c-.16,0,0-1,.13-1,1.88-.16,3.33-1.44,3.88-5.88l.45-3.66-17.58-2.18c-4.93-.61-6-.41-6.84,3.43,0,.17-1.15.14-1-.3.33-1.25.73-4.07.95-5.85a62.57,62.57,0,0,0,.63-6.85c-.06-.46,1.08-.09,1.06.08-.07,3.71.58,4.35,5.8,5l17.58,2.18.48-3.88c.54-4.27-.48-6.09-2.35-6.88,0-.23.07-1.07.23-1a30.37,30.37,0,0,0,4.13.79,8.64,8.64,0,0,0,2.19.05c.17,0,.1,1-.07,1-1.37.17-1.44.28-2.18,6.27l-1.5,12c-.73,5.94-.77,6.22.58,6.72.16.08,0,1.12-.24,1a16.89,16.89,0,0,0-3.67-.8c-.67-.08-2.06-.25-2.62-.27"/><path class="cls-3" d="M437.29,310.44l-6.15-1.87c-5.67-1.73-5.9-1.33-7.33,2.21-.05.16-1.21-.08-1-.37.55-1.23,1.41-3.89,1.94-5.6a67.1,67.1,0,0,0,1.82-6.75c0-.35,1.06.15,1,.31-.63,3.61-1.06,4.06,4.88,5.87l5.51,1.67,6.65-1.88c7.09-2,8.24-2.7,9.58-6,.05-.16,1.22,0,1,.31a55.13,55.13,0,0,0-2.09,6.09c-.52,1.71-1.26,4.34-1.48,5.62,0,.36-1.08-.09-1-.25.79-3.56-.38-3.16-7.19-1.14l-4.3,1.26,3.52,4.58c4.26,5.56,4.52,5.29,5.89,2.14,0-.16,1.24,0,1,.36a48.39,48.39,0,0,0-2,5.66,29.66,29.66,0,0,0-1,4.07c0,.36-1.09-.09-1-.25.79-3.56.34-4.75-3.71-10.07Z"/><rect class="cls-3" x="415.46" y="344.85" width="9.6" height="9.61" transform="matrix(0.97, -0.26, 0.26, 0.97, -75.31, 118.81)"/><path class="cls-3" d="M102.92,384.8c-.11-.13.63-.8.74-.68l.34.37c2.6,2.85,5.87,3.12,9.18.11,3.13-2.86,3.12-5.87.52-8.72-.26-.29-1-.91-1.4-1.29a25.8,25.8,0,0,0-4.32,3.56l-9.34,8.51C94.92,390,94.4,391,96.72,394c.11.13-.68,1-.83.68-.74-1.06-2.62-3.21-3.82-4.53a67,67,0,0,0-4.83-5c-.39-.26.67-.84.78-.72,2.77,2.47,3.65,2.43,7.57-1.15l9.34-8.51c3.88-3.54,4-4.44,1.89-7.47-.12-.12.52-1.08.74-.67a52.73,52.73,0,0,0,4,4.73c.68.74,2.76,2.78,3.78,3.9,3.8,4.17,4.75,9.28,1.49,12.25-3.64,3.31-9.14,2.5-13.54-2.33l-.38-.41"/><path class="cls-3" d="M125.34,405.66a12,12,0,0,1-1.24-1.05l-2.91,3.68c-3.12,3.95-3.44,5-.67,7.6.13.11-.51,1.1-.7.8-.91-.93-3.11-2.74-4.51-3.85a64.84,64.84,0,0,0-5.62-4.16c-.33-.12.53-.94.66-.83,3.09,1.94,4,1.83,7.33-2.33l7.84-9.91c3-3.81,3-5.2,1.44-6.41a8.35,8.35,0,0,0-1.33-.84c-.25-.05.19-1.06.49-.89,1.75.67,5.79,3.58,9.38,6.42,5.92,4.68,7.58,9.07,4.81,12.57-1.73,2.19-5,3.09-8.46,2.14-1.79,5.86-2.41,15.2,1.4,18.22.13.11-.39,1-.65.83-7.19-5.68-7.25-14-4.6-20.31a21.48,21.48,0,0,1-2.66-1.68M132.89,394a24.77,24.77,0,0,0-3.62,4l-4.17,5.26c.4.31.63.56,1.2,1,4.34,3.43,7.36,3.12,9.72.14,2.91-3.69,1.85-6.66-2-9.68a11.89,11.89,0,0,0-1.17-.78"/><path class="cls-3" d="M146,419.54c3.51-6.8,12.8-10.06,20.95-5.86,7.65,3.94,10.41,12.85,7.06,19.36-3.49,6.76-12.73,10-20.92,5.81-7.6-3.92-10.44-12.8-7.09-19.31m5,.56c-4.21,8.15-1.17,15.06,3.8,17.62,5.31,2.75,10.88,1.47,14.31-5.19,4.2-8.15,1.17-15.18-3.8-17.75C160,412,154.42,413.4,151,420.1"/><path class="cls-3" d="M191.48,453.83c-.1.15-.77.07-.84-.3l-2.75-21.9c-.64-5-1.41-6.89-4.55-8.1-.16,0,0-1.22.3-1a53.38,53.38,0,0,0,5.28,1.84,53.93,53.93,0,0,0,7,1.77c.35,0,0,1.06-.25,1-1.83-.31-2.88-.5-3.2.57a13,13,0,0,0-.05,5.11l2,15,9.69-11.54c2.17-2.62,2.55-3.33,2.83-4.29s-.49-1.49-2.21-2.17c-.16-.05,0-1.22.3-1a38.12,38.12,0,0,0,4.53,1.63,21.71,21.71,0,0,0,4.53,1c.35,0-.09,1.08-.25,1-2.6-.47-4.41.34-7.89,4.44Z"/><path class="cls-3" d="M215.68,446.14c.73-7.62,8.15-14.1,17.28-13.22,8.56.82,14.44,8.07,13.73,15.36-.72,7.56-8.08,14-17.26,13.16-8.51-.82-14.45-8-13.75-15.3m4.85-1.33c-.88,9.12,4.51,14.41,10.07,14.95,6,.57,10.64-2.69,11.36-10.14.88-9.12-4.55-14.53-10.12-15.07-6-.57-10.59,2.75-11.31,10.26"/><path class="cls-3" d="M250.87,467c3.58-.07,4.45-1.65,4.42-3,0-.95-.64-1.5-2-2.15-1.08-.48-1.59-.92-1.6-1.87a1.92,1.92,0,0,1,2-1.88c1.79,0,3.72,1.44,3.77,4.18.05,3.24-2.7,5.75-6.55,5.82-.34,0-.19-1.06-.08-1.06"/><path class="cls-3" d="M309.48,443.49c1.33,5.54-1.72,11.23-9,13-6.3,1.52-12.64-1.15-14.22-7.67L284,439.25c-1.24-5.16-2-5.72-5.65-5.31-.16,0-.53-1-.18-1a54.86,54.86,0,0,0,6.79-1.41c1.74-.43,4.44-1.14,5.71-1.61.3-.19.56.9.29,1-3.62,1.22-3.68,2.38-2.5,7.28l2.09,8.63C292,453.17,296.84,455,301,454c5.48-1.33,7.65-5,6.3-10.56L305,433.77c-1.13-4.68-1.93-5.35-5.56-4.93-.29,0-.54-1-.19-1a32.25,32.25,0,0,0,5.38-1.07,38.47,38.47,0,0,0,4.67-1.36c.43-.16.46.93.35.95-3.67,1.23-3.71,2.51-2.64,6.91Z"/><path class="cls-3" d="M341.58,416.92c.07.15-.87.52-.91.42-1.13-1.51-3-2.07-7.05-.2l-3.35,1.54,7.4,16.09c2.08,4.52,2.83,5.35,6.52,4,.15-.07.72.9.29,1-1.23.39-3.85,1.53-5.47,2.28a61.87,61.87,0,0,0-6.16,3.07c-.36.29-.64-.87-.49-.94,3.19-1.9,3.39-2.79,1.2-7.57l-7.41-16.09-3.55,1.63c-3.91,1.8-4.92,3.62-4.61,5.63-.18.15-.94.5-1,.32a31.93,31.93,0,0,0-1.5-3.93,9.17,9.17,0,0,0-1.11-1.88c-.12-.13.77-.6.89-.47.86,1.08,1,1.08,6.47-1.44l11-5.07c5.44-2.5,5.69-2.62,5.41-4,0-.17,1-.57,1-.32a17.67,17.67,0,0,0,1.26,3.55c.28.61.86,1.88,1.15,2.36"/><path class="cls-3" d="M370.51,424.28c-.21.28-.73-.79-.59-.88,1.45-1.25,2.58-1.68,1.95-2.6s-2.35-2.19-4.15-3.54l-2.49-1.89-7.5,5.07.59,3.18c.5,2.63.9,4.32,1.53,5.24s1.41.19,3-.67c.23-.15.88.82.54.91a41.22,41.22,0,0,0-4.1,2.51,28.68,28.68,0,0,0-3.72,2.78c-.25.24-.74-.78-.59-.88,2.18-1.75,2.54-3.81,1.67-8.89l-3.68-22c-.06-.3.37-.66.65-.44l18,12.3c3.6,2.42,5.4,3.7,8.93,1.72.14-.1.89.82.54.91a54.3,54.3,0,0,0-4.75,2.95,70,70,0,0,0-5.85,4.22m-13.16-5.6,6.43-4.35-8.13-5.84Z"/><path class="cls-3" d="M402.54,397c-.16.23-.87-.63-.75-.75,2-2.58,1.89-3.57-1.8-7.23l-4.05-4-10.55,10.62,4,4c3.49,3.47,4.64,4,7.2,1.8.12-.12,1,.63.71.79a55.92,55.92,0,0,0-4.1,3.81,72.23,72.23,0,0,0-5,5.35c-.16.31-.87-.64-.75-.75,2.64-3.37,2.52-4-1.25-7.79l-9-8.9c-3.77-3.74-4.52-3.94-7.83-1.24-.12.12-1-.63-.71-.78a60.21,60.21,0,0,0,5.32-5,54,54,0,0,0,3.74-4.17c.16-.31.91.6.79.71-2.17,2.58-1.65,3.72,1.88,7.23l3.77,3.74,10.55-10.62L391,380.09c-3.73-3.71-4.76-3.86-7.28-1.8-.12.12-1-.63-.79-.79a45.1,45.1,0,0,0,4.85-4.4c1.3-1.31,3.5-3.69,4.29-4.71.15-.32,1,.5.79.7-2.83,3.33-2.24,4.24,1.33,7.78l9,8.91c3.57,3.54,4.4,4.05,7.75,1.24.2-.2,1,.63.71.79-1,.79-3.35,3.05-4.65,4.36a57.11,57.11,0,0,0-4.45,4.8"/><path class="cls-4" d="M344.81,323.43h-187a1.47,1.47,0,1,1,0-2.94h187a1.47,1.47,0,1,1,0,2.94"/><path class="cls-4" d="M344.81,191.05h-187a1.47,1.47,0,1,1,0-2.94h187a1.47,1.47,0,0,1,0,2.94"/><path class="cls-5" d="M185.37,154.33h-2.61a21.37,21.37,0,0,0-.14,3.25v3.35h1.55c2.9,0,3.18-.38,3.5-1.62,0-.07.7-.07.67.07a12,12,0,0,0-.18,2.4,13.27,13.27,0,0,0,0,1.7c.07.21-.64.28-.67.07-.22-1.06-.5-1.56-3.36-1.56h-1.55v3.71c0,3.35.25,3.81,2.75,4,.18,0,.25.7,0,.67-.82-.11-2.76-.15-3.89-.15a34.65,34.65,0,0,0-4.13.15c-.21.07-.1-.67,0-.67,2.05-.25,2.44-.75,2.44-4v-8c0-3.35-.28-3.77-3-4.06-.07,0-.17-.74,0-.7,2,.17,5.19.21,7.87.21,1.91,0,3.64-.11,4.62-.11.46,0,.68.07.75.57s.14,2.22.24,2.93c0,.1-.6.14-.63,0-.36-1.73-.29-2.26-4.31-2.26"/><path class="cls-5" d="M193.53,162c0-4.83,4.27-9.35,10.06-9.35,5.43,0,9.56,4.2,9.56,8.82,0,4.81-4.23,9.32-10.06,9.32-5.4,0-9.56-4.16-9.56-8.79m3-1.13c0,5.79,3.71,8.79,7.24,8.79,3.77,0,6.53-2.33,6.53-7.06,0-5.78-3.74-8.86-7.27-8.86-3.78,0-6.5,2.37-6.5,7.13"/><path class="cls-5" d="M233.56,164.15c0,3.6-2.72,6.63-7.45,6.63-4.1,0-7.59-2.57-7.59-6.81v-6.21c0-3.35-.39-3.81-2.68-4.1-.11,0-.18-.7,0-.63a34.29,34.29,0,0,0,4.38.14c1.13,0,2.89,0,3.74-.14.21-.07.21.63,0,.63-2.4.22-2.62.92-2.62,4.1v5.61c0,4.13,2.69,6,5.41,6,3.56,0,5.43-1.91,5.43-5.54v-6.29c0-3-.39-3.56-2.68-3.85-.18,0-.18-.7,0-.63a21.1,21.1,0,0,0,3.46.14,27.72,27.72,0,0,0,3.07-.14c.29,0,.15.63.08.63-2.44.22-2.65,1-2.65,3.85Z"/><path class="cls-5" d="M257.38,165.7c0,1.31,0,3.71.18,4.84,0,.1-.42.24-.64,0l-13.16-13.38v8.51c0,2.82.25,3.81,2.68,4,.07,0,.14.74-.07.67a21.77,21.77,0,0,0-2.86-.15,29,29,0,0,0-3.81.15c-.18,0-.11-.67,0-.67,2.33-.25,2.68-1,2.68-4v-9.07c0-1.2-2.22-2.82-3.42-3-.11,0-.18-.74,0-.67a36.38,36.38,0,0,0,4.66.21L256,166v-8.23c0-3-.35-3.81-2.65-4.06-.17,0-.17-.74,0-.67a19.75,19.75,0,0,0,3.5.18A24.68,24.68,0,0,0,260,153c.35,0,.18.67.11.67-2.47.18-2.69,1.24-2.69,4.06Z"/><path class="cls-5" d="M268.26,170.25a46,46,0,0,0-4.77.15c-.35,0-.14-.68,0-.68,2.33-.24,2.69-.7,2.69-4v-8c0-3.35-.36-3.81-2.69-4.06-.1,0-.28-.74.08-.67a41.2,41.2,0,0,0,5,.18c.64,0,3.11-.11,4.06-.11,6.36,0,9.81,3.68,9.81,8.41s-4.19,8.89-10.16,8.89c-.92,0-3.32-.11-3.95-.11m.95-15.95a14.68,14.68,0,0,0-.21,3.42v8.93c0,1.95.17,2.58,3.95,2.58a6.37,6.37,0,0,0,6.53-6.71c0-5.54-2.82-8.36-7.73-8.36a12.65,12.65,0,0,0-2.54.14"/><path class="cls-5" d="M297.34,170.4c-1,0-2.65-.15-4.62-.15-2.69,0-5.9,0-7.88.15-.21,0-.1-.67,0-.67,2.69-.32,2.93-.68,2.93-4v-8c0-3.35-.24-3.77-2.93-4.06-.1,0-.21-.74,0-.7,2,.17,5.09.21,7.77.21,1.9,0,3.74-.07,5.37-.21a6.43,6.43,0,0,0-.18,1.83c0,.29,0,1.06,0,1.24s-.67.11-.67,0c-.21-1.16-.64-1.73-4.06-1.73h-2.3a22.84,22.84,0,0,0-.14,3.25v3.25h1.77c3,0,3.17-.07,3.46-1.2,0-.07.67-.11.63.07a12.68,12.68,0,0,0-.14,2.08v1.52a2,2,0,0,1-.67,0c-.25-1.38-.46-1.49-3.28-1.49h-1.77v3.5c0,3.39.18,3.7,1.38,3.7h1.38c4.05,0,4.16-.56,4.55-2.29,0,0,.71,0,.71.07-.11.67-.39,2.4-.57,2.93s-.28.64-.74.64"/><path class="cls-5" d="M307.12,170.25a46,46,0,0,0-4.77.15c-.35,0-.14-.68,0-.68,2.33-.24,2.68-.7,2.68-4v-8c0-3.35-.35-3.81-2.68-4.06-.11,0-.28-.74.07-.67a41.2,41.2,0,0,0,5,.18c.64,0,3.11-.11,4.06-.11,6.36,0,9.82,3.68,9.82,8.41s-4.2,8.89-10.17,8.89c-.92,0-3.32-.11-3.95-.11m.95-15.95a14.68,14.68,0,0,0-.21,3.42v8.93c0,1.95.18,2.58,3.95,2.58a6.37,6.37,0,0,0,6.53-6.71c0-5.54-2.82-8.36-7.73-8.36a12.73,12.73,0,0,0-2.54.14"/><path class="cls-5" d="M155.63,248.13V236a9.65,9.65,0,0,0-.14-1.66,12.74,12.74,0,0,0,1.67.13h9.17c7,0,11.06,1.08,11.06,7.42,0,4.12-2.54,7.8-10.78,7.8h-9.45a15.53,15.53,0,0,0-1.64.1,13.42,13.42,0,0,0,.11-1.63m0,27.89V262a10.76,10.76,0,0,0-.12-1.64,14.19,14.19,0,0,0,1.65.11h7.75c6.18,0,13.74,0,13.74,8.56,0,6.34-5.41,8.56-12.7,8.56h-8.79a12.52,12.52,0,0,0-1.63.12,16.1,16.1,0,0,0,.1-1.65m-22.22-49.14v58.53c0,1.9.11,2.58-1.23,3.41s-2.67.95-4.83,1.32h0c-.22.05-.18.87,0,.87h47.34c20,0,28.37-7.93,28.37-20.29,0-9.13-4.25-14.72-12.68-16.82a.14.14,0,0,1,0-.27c5.37-1.68,10.31-5.56,10.31-15.08,0-12.9-8.72-17.27-27.74-17.27H127.35c-.22,0-.26.81,0,.87h0c2.17.37,3.51.5,4.83,1.32s1.23,1.5,1.23,3.39"/><path class="cls-5" d="M372,226.89c0-1.9-.11-2.57,1.23-3.4s2.67-1,4.83-1.32h0c.22-.06.18-.87,0-.87H343.12c-.22,0-.26.81,0,.87h0a9.71,9.71,0,0,1,4.54,1.31c1.35.84,1.23,1.51,1.23,3.41v35.17c0,8-4.6,14.19-13.72,14.19s-13.72-6.17-13.72-14.19V226.9c0-1.9-.12-2.58,1.23-3.41a10.26,10.26,0,0,1,4.54-1.32h0c.22-.06.18-.87,0-.87h-33c-.24,0-.19.82,0,.87h0a4.35,4.35,0,0,1,2.78.78c1.1.93,1.27,2.05,1.27,3.95v34.57c0,16.67,9.12,30.83,36.8,30.83S372,278.13,372,261.46Z"/><path class="cls-5" d="M266.15,291c.22,0,.26-.82,0-.87h0c-2.17-.37-3.51-.5-4.83-1.32s-1.23-1.51-1.23-3.4V263.21l24.15-35.87a17.35,17.35,0,0,1,3.25-3.9,9.48,9.48,0,0,1,.91-.63,4.84,4.84,0,0,1,2.6-.65h0c.22,0,.29-.86,0-.86H258.51c-.27,0-.22.85,0,.87h0c1.58,0,3.53,0,3.21,2.28s-9.57,15.78-12.91,20.93a6.4,6.4,0,0,0-1,2.43,6.21,6.21,0,0,0-1.09-2.42c-4.66-6.94-12.63-18.19-12.86-20.94-.19-2.36,1.63-2.29,3.21-2.29h0c.23,0,.31-.86,0-.86H203c-.2,0-.18.78,0,.86h0a9.08,9.08,0,0,1,4,.88,6.84,6.84,0,0,1,.87.57,16.13,16.13,0,0,1,3.07,3.73l24.12,35.71v22.36c0,1.9.12,2.58-1.23,3.41s-2.66.95-4.83,1.32h0c-.22.05-.18.87,0,.87Z"/></g></svg>