<?xml version="1.0" encoding="UTF-8" standalone="no"?>
<!-- Created with Inkscape (http://www.inkscape.org/) -->

<svg
   xmlns:dc="http://purl.org/dc/elements/1.1/"
   xmlns:cc="http://creativecommons.org/ns#"
   xmlns:rdf="http://www.w3.org/1999/02/22-rdf-syntax-ns#"
   xmlns:svg="http://www.w3.org/2000/svg"
   xmlns="http://www.w3.org/2000/svg"
   xmlns:sodipodi="http://sodipodi.sourceforge.net/DTD/sodipodi-0.dtd"
   xmlns:inkscape="http://www.inkscape.org/namespaces/inkscape"
   width="208.53297mm"
   height="71.477425mm"
   viewBox="0 0 208.53297 71.477425"
   version="1.1"
   id="svg8"
   inkscape:version="0.92.2 5c3e80d, 2017-08-06"
   sodipodi:docname="lab_illustration.svg">
  <defs
     id="defs2" />
  <sodipodi:namedview
     id="base"
     pagecolor="#ffffff"
     bordercolor="#666666"
     borderopacity="1.0"
     inkscape:pageopacity="0.0"
     inkscape:pageshadow="2"
     inkscape:zoom="1.979899"
     inkscape:cx="362.25154"
     inkscape:cy="79.708005"
     inkscape:document-units="mm"
     inkscape:current-layer="layer1"
     showgrid="false"
     inkscape:window-width="3008"
     inkscape:window-height="1567"
     inkscape:window-x="0"
     inkscape:window-y="1"
     inkscape:window-maximized="1"
     inkscape:pagecheckerboard="true"
     fit-margin-top="0"
     fit-margin-left="0"
     fit-margin-right="0"
     fit-margin-bottom="0" />
  <metadata
     id="metadata5">
    <rdf:RDF>
      <cc:Work
         rdf:about="">
        <dc:format>image/svg+xml</dc:format>
        <dc:type
           rdf:resource="http://purl.org/dc/dcmitype/StillImage" />
        <dc:title></dc:title>
      </cc:Work>
    </rdf:RDF>
  </metadata>
  <g
     inkscape:label="Layer 1"
     inkscape:groupmode="layer"
     id="layer1"
     transform="translate(-0.55391004,-171.03862)">
    <path
       style="fill:#000000;stroke-width:0.20364505"
       d="m 0.55391004,241.90548 v -0.61094 H 8.0842201 15.61453 l 0.05551,-12.52086 0.05551,-12.52087 0.766889,-0.76698 0.76688,-0.76696 8.408457,-0.0573 8.408448,-0.0573 0.701447,0.46865 c 1.463636,0.97788 1.413534,0.47992 1.413888,14.05384 l 3.16e-4,12.16779 h 2.138274 2.138274 l 0.0048,-4.12381 c 0.0038,-3.59954 0.04929,-4.17904 0.356379,-4.55818 0.731363,-0.90288 1.744828,-1.1162 2.76796,-0.5826 0.40916,0.21339 1.199497,0.30186 2.64738,0.29636 l 2.064083,-0.008 0.411305,-0.654 c 0.892244,-1.41877 3.782449,-2.61353 7.632677,-3.15523 1.288054,-0.18122 2.360771,-0.33764 2.383807,-0.3476 0.02307,-0.01 -0.0937,-0.41166 -0.25942,-0.89268 -0.289375,-0.83993 -0.243283,-1.39855 0.205442,-2.48984 0.113096,-0.27506 -0.098,-0.34527 -1.358608,-0.45182 -3.448714,-0.29153 -8.264478,-2.28955 -11.255298,-4.66974 -3.777588,-3.00634 -6.510328,-7.18731 -7.792697,-11.92253 -0.487429,-1.79984 -0.535282,-2.31334 -0.535282,-5.74398 0,-3.43063 0.04785,-3.94413 0.535282,-5.74397 1.849176,-6.82816 6.42046,-12.0984 12.98042,-14.96515 1.628891,-0.71184 1.626967,-0.70878 1.339583,-2.1303 -0.130485,-0.64543 -0.09417,-0.76176 0.274024,-0.87863 0.601194,-0.19081 0.753739,-0.0369 1.022854,1.03185 0.232431,0.92308 0.251744,0.94055 0.890541,0.80596 1.48093,-0.31202 2.939091,-0.51842 3.670244,-0.51953 0.727937,-9.6e-4 0.77311,0.0343 0.712758,0.55884 -0.05513,0.47926 -0.167236,0.56789 -0.777197,0.61453 -1.204178,0.0921 -3.356789,0.46739 -3.622448,0.63158 -0.188895,0.11674 -0.198178,0.30906 -0.03713,0.77087 l 0.214495,0.61531 1.46801,-0.28706 c 2.370332,-0.4635 6.901036,-0.24691 9.193971,0.43953 6.938715,2.07723 12.053243,7.47782 13.80391,14.57598 0.651162,2.64014 0.59838,6.73269 -0.12212,9.46949 -1.619234,6.15062 -6.429103,11.56083 -12.079601,13.58732 -1.313656,0.47113 -1.563094,0.82824 -1.095036,1.56773 0.215386,0.3403 1.212332,0.0182 3.546822,-1.14586 1.324241,-0.66033 1.408012,-0.67667 1.673174,-0.3264 0.153531,0.2028 0.253706,0.46036 0.222611,0.57237 -0.175466,0.63208 -5.068608,2.58196 -7.176898,2.85995 l -1.036042,0.1366 0.374199,0.73396 c 0.450841,0.88429 0.479744,1.8895 0.07676,2.66882 l -0.297462,0.57523 1.66544,0.14528 c 3.710067,0.32363 7.255042,1.64509 8.586729,3.20086 l 0.6659,0.77795 h 3.074505 c 2.94625,0 3.087722,0.0188 3.391521,0.4526 0.489123,0.69835 0.389637,1.31432 -0.293922,1.8197 l -0.610937,0.45168 v 2.3817 c 0,2.23248 0.02622,2.38855 0.418933,2.49124 0.230411,0.0603 0.525423,0.39169 0.655583,0.7365 l 0.236651,0.62696 h 3.824608 3.824608 v -1.01822 -1.01823 h -0.712759 c -0.656186,0 -0.712758,-0.0485 -0.712758,-0.61093 0,-0.56245 0.05656,-0.61093 0.712758,-0.61093 0.708988,0 0.712759,-0.005 0.712759,-0.91641 0,-0.91155 -0.0038,-0.9164 -0.712759,-0.9164 -0.624508,0 -0.712758,-0.0631 -0.712758,-0.50911 0,-0.44609 0.08824,-0.50912 0.712758,-0.50912 0.708988,0 0.712759,-0.005 0.712759,-0.9164 0,-0.91155 -0.0038,-0.9164 -0.712759,-0.9164 -0.656186,0 -0.712758,-0.0485 -0.712758,-0.61093 0,-0.56245 0.05656,-0.61094 0.712758,-0.61094 0.708988,0 0.712759,-0.005 0.712759,-0.9164 0,-0.91156 -0.0038,-0.9164 -0.712759,-0.9164 -0.656186,0 -0.712758,-0.0485 -0.712758,-0.61094 0,-0.56245 0.05656,-0.61094 0.712758,-0.61094 0.708988,0 0.712759,-0.005 0.712759,-0.9164 0,-0.91156 -0.0038,-0.91641 -0.712759,-0.91641 -0.656186,0 -0.712758,-0.0485 -0.712758,-0.61092 0,-0.56246 0.05656,-0.61094 0.712758,-0.61094 0.708988,0 0.712759,-0.005 0.712759,-0.9164 0,-0.91156 -0.0038,-0.9164 -0.712759,-0.9164 -0.656186,0 -0.712758,-0.0485 -0.712758,-0.61095 0,-0.56244 0.05656,-0.61093 0.712758,-0.61093 0.708988,0 0.712759,-0.005 0.712759,-0.9164 0,-0.91155 -0.0038,-0.91641 -0.712759,-0.91641 -0.656186,0 -0.712758,-0.0485 -0.712758,-0.61092 0,-0.56246 0.05656,-0.61094 0.712758,-0.61094 0.708988,0 0.712759,-0.005 0.712759,-0.91641 0,-0.91155 -0.0038,-0.9164 -0.712759,-0.9164 -0.656186,0 -0.712758,-0.0485 -0.712758,-0.61094 0,-0.56244 0.05656,-0.61093 0.712758,-0.61093 0.708988,0 0.712759,-0.005 0.712759,-0.9164 0,-0.91155 -0.0038,-0.91641 -0.712759,-0.91641 -0.656186,0 -0.712758,-0.0485 -0.712758,-0.61093 0,-0.56245 0.05656,-0.61093 0.712758,-0.61093 0.708988,0 0.712759,-0.005 0.712759,-0.91641 0,-0.91155 -0.0038,-0.9164 -0.712759,-0.9164 -0.624508,0 -0.712758,-0.0631 -0.712758,-0.50911 0,-0.44608 0.08824,-0.50911 0.712758,-0.50911 h 0.712759 v -1.33381 c 0,-0.79392 0.125039,-1.57561 0.308918,-1.93118 0.656235,-1.269 -0.16892,-1.21521 18.640328,-1.21521 h 17.13666 l 0.69239,0.6924 0.6924,0.69238 v 6.74066 c 0,5.94404 0.0371,6.74065 0.31472,6.74065 0.1731,0 0.53966,0.22493 0.81458,0.49986 0.48341,0.48341 0.49986,0.59424 0.49986,3.36939 0,2.77516 -0.0165,2.88598 -0.49986,3.3694 -0.27492,0.27493 -0.64148,0.49986 -0.81458,0.49986 -0.27333,0 -0.31472,0.53327 -0.31472,4.05451 v 4.05452 l 0.9683,-0.46712 c 1.34891,-0.65074 3.33169,-1.23809 5.19061,-1.53759 l 1.5769,-0.25406 -0.68683,-0.76024 c -0.91219,-1.00968 -1.20403,-1.97733 -1.10814,-3.67433 0.0964,-1.70508 0.77301,-2.81053 2.29714,-3.75279 0.88414,-0.54659 1.17503,-0.61618 2.5901,-0.61953 l 1.59408,-0.004 8.98443,-9.43394 c 8.72708,-9.16371 8.97755,-9.44909 8.74378,-9.96214 -0.15613,-0.34268 -0.22513,-1.52677 -0.19644,-3.37142 l 0.0442,-2.84323 -9.14428,-8.71131 c -7.64291,-7.28101 -9.18317,-8.6612 -9.38113,-8.40614 -0.18564,0.23919 -0.13273,0.5406 0.24473,1.39409 1.17088,2.64757 1.4953,6.11665 0.83323,8.90982 -0.30959,1.30608 -1.28493,3.46257 -2.12274,4.6934 l -0.38679,0.56821 -2.8069,-2.16194 -2.8069,-2.16192 -1.29405,0.35028 c -4.42064,1.19661 -8.63001,-1.98016 -8.69981,-6.56566 l -0.0231,-1.513 -2.90729,-2.24053 c -1.59901,-1.23229 -2.90731,-2.33814 -2.90731,-2.45744 0,-0.40942 2.56639,-2.71451 3.87948,-3.48448 2.1853,-1.28142 3.75748,-1.67354 6.71007,-1.67354 1.40006,0 2.87327,0.0699 3.27378,0.15531 l 0.72823,0.15531 2.06514,-2.62837 c 2.43261,-3.09607 3.30856,-3.6912 5.42786,-3.68779 4.43146,0.007 6.61074,4.77729 3.87471,8.48118 -0.31693,0.42905 -0.0982,0.65459 9.47999,9.77496 l 9.80441,9.33578 1.76467,0.10326 c 2.16562,0.12673 3.04964,0.59121 3.70609,1.94726 0.39488,0.81573 0.43516,1.17823 0.37083,3.33759 -0.0797,2.67627 -0.2541,3.1162 -1.59744,4.03047 -0.5309,0.36133 -0.95851,0.4582 -2.02253,0.4582 h -1.34928 l -9.66834,10.17813 c -6.25584,6.58568 -9.65094,10.30536 -9.61901,10.53863 0.0272,0.19828 0.10642,0.73606 0.17618,1.19507 0.17838,1.17375 -0.37696,2.94452 -1.19496,3.81023 l -0.65971,0.69819 1.60322,0.24478 c 3.58887,0.54799 6.8109,1.99548 8.46124,3.8012 0.55059,0.60245 1.06163,1.37104 1.13564,1.70799 l 0.13455,0.61263 h 2.02028 2.02027 v -1.39539 c 0,-1.11173 0.094,-1.53607 0.46226,-2.08736 0.94152,-1.40937 0.90217,-1.40405 10.38183,-1.40441 l 8.50218,-3.1e-4 v -0.9164 -0.9164 h -7.12757 -7.12758 v 0.5091 c 0,0.42992 -0.095,0.50912 -0.61093,0.50912 -0.51591,0 -0.61094,-0.0793 -0.61094,-0.50912 0,-0.49517 -0.0395,-0.5091 -1.44341,-0.5091 h -1.4434 l 0.071,-3.20741 c 0.0767,-3.46431 0.18492,-3.87594 1.32049,-5.02205 1.12764,-1.13809 1.12878,-1.13822 10.85648,-1.13822 h 8.96694 v -5.09113 -5.09113 h 1.93464 c 1.06403,0 1.93462,-0.0308 1.93462,-0.0685 0,-0.0376 -0.4582,-2.11457 -1.01822,-4.61535 -0.56003,-2.50078 -1.01823,-4.7137 -1.01823,-4.91761 0,-0.2039 0.25292,-0.65379 0.56204,-0.99976 0.47778,-0.53473 0.74668,-0.64577 1.79386,-0.74072 1.91816,-0.17393 2.00202,-0.0184 3.3506,6.215 l 1.1092,5.12693 h 0.97051 c 0.53379,0 0.97079,-0.0687 0.97113,-0.15273 4e-4,-0.084 0.68951,-3.35625 1.53153,-7.27167 1.71964,-7.99634 1.74267,-8.05262 3.29556,-8.05262 1.12071,0 2.19519,0.44209 2.51165,1.03342 0.23088,0.43139 0.18391,1.45387 -0.13187,2.87067 -0.11258,0.50513 -0.0603,0.556 0.73236,0.71276 0.46947,0.0928 0.86586,0.21462 0.88085,0.27063 0.015,0.056 -0.38129,2.04553 -0.88062,4.42118 l -0.90787,4.31937 -0.51234,-0.12238 c -0.28178,-0.0673 -0.54489,-0.14969 -0.58469,-0.18307 -0.0663,-0.0556 0.65043,-3.62222 1.29615,-6.44957 0.24597,-1.077 0.23919,-1.17096 -0.0845,-1.17096 -0.29448,0 -0.51213,0.7567 -1.33256,4.63293 -0.53932,2.54811 -1.0241,4.74747 -1.07727,4.88749 -0.0729,0.19208 0.35844,0.25455 1.75792,0.25455 h 1.85459 v 9.93582 c 0,10.82254 -0.0379,11.25196 -1.17766,13.3526 -0.30432,0.56088 -0.98266,1.46122 -1.50741,2.00078 l -0.9541,0.98101 h 8.03076 8.03076 v 0.61093 0.61094 H 104.82017 0.55391004 Z M 34.969923,229.18088 V 217.0672 l -0.594006,-0.66505 -0.594017,-0.66506 -7.40552,-0.0602 c -8.382789,-0.0681 -8.779068,-0.0183 -9.377812,1.18027 -0.326749,0.65406 -0.356092,1.68956 -0.356379,12.57508 l -3.16e-4,11.86232 h 9.164025 9.164025 z m -16.716539,9.81618 c -0.892168,-0.68499 -1.028951,-1.89026 -0.309436,-2.72675 0.389694,-0.45305 0.659594,-0.56675 1.345305,-0.56675 0.685712,0 0.955612,0.1137 1.345306,0.56675 1.064275,1.23729 0.306736,2.99464 -1.285135,2.98131 -0.425115,-0.004 -0.918334,-0.11811 -1.09604,-0.25456 z m 1.606658,-1.49494 c 0.07838,-0.54942 -0.532784,-0.81305 -0.94026,-0.40557 -0.414922,0.41492 -0.150583,0.98399 0.419468,0.90304 0.285739,-0.0406 0.482404,-0.22843 0.520792,-0.49747 z m 2.873533,1.49494 c -0.901634,-0.69225 -0.985787,-2.17167 -0.165753,-2.91379 0.667863,-0.60441 1.946949,-0.51047 2.546928,0.18704 1.064275,1.23729 0.306736,2.99464 -1.285135,2.98131 -0.425115,-0.004 -0.918334,-0.11811 -1.09604,-0.25456 z m 1.606658,-1.49494 c 0.07838,-0.54942 -0.532784,-0.81305 -0.94026,-0.40557 -0.414922,0.41492 -0.150583,0.98399 0.419468,0.90304 0.285739,-0.0406 0.482404,-0.22843 0.520792,-0.49747 z m 2.583602,1.10539 c -1.037631,-1.23315 -0.261803,-2.90395 1.348445,-2.90395 1.057116,0 1.810157,0.76719 1.810157,1.84416 0,1.66171 -2.068218,2.35564 -3.158602,1.05979 z m 1.896589,-1.10539 c 0.07838,-0.54942 -0.532784,-0.81305 -0.94026,-0.40557 -0.414922,0.41492 -0.150583,0.98399 0.419468,0.90304 0.285739,-0.0406 0.482405,-0.22843 0.520792,-0.49747 z m 2.205881,1.3339 -0.536574,-0.42207 v -3.15097 c 0,-3.11432 0.0057,-3.15708 0.524591,-3.67558 0.455569,-0.45556 0.648789,-0.5106 1.468393,-0.41821 1.553522,0.1751 1.672629,0.46335 1.672629,4.04782 0,2.95758 -0.01378,3.05514 -0.499862,3.54122 -0.644348,0.64435 -1.863073,0.6804 -2.629177,0.0778 z m 1.805343,-3.64805 c 0,-2.48167 -0.03531,-2.75321 -0.36616,-2.81693 -0.797764,-0.15363 -0.957535,0.30031 -0.957535,2.72061 0,2.72918 0.07044,2.98809 0.789686,2.90468 l 0.534009,-0.0619 z m -14.847982,-0.83299 c -0.660934,-0.78546 -0.675021,-1.62264 -0.03972,-2.36121 0.389694,-0.45306 0.659594,-0.56676 1.345305,-0.56676 1.080909,0 1.832811,0.75656 1.832811,1.84416 0,1.64278 -2.067328,2.35671 -3.138398,1.08381 z m 1.876376,-1.12941 c 0.07838,-0.54942 -0.532784,-0.81305 -0.94026,-0.40557 -0.414922,0.41493 -0.150583,0.98399 0.419468,0.90305 0.285739,-0.0406 0.482404,-0.22844 0.520792,-0.49748 z m 2.603815,1.12941 c -0.660933,-0.78546 -0.675021,-1.62264 -0.03972,-2.36121 0.389694,-0.45306 0.659594,-0.56676 1.345306,-0.56676 1.080899,0 1.832801,0.75656 1.832801,1.84416 0,1.64278 -2.067319,2.35671 -3.138389,1.08381 z m 1.876376,-1.12941 c 0.07838,-0.54942 -0.532784,-0.81305 -0.94026,-0.40557 -0.414922,0.41493 -0.150583,0.98399 0.419468,0.90305 0.285739,-0.0406 0.482404,-0.22844 0.520792,-0.49748 z m 2.583602,1.1054 c -1.037631,-1.23316 -0.261803,-2.90396 1.348445,-2.90396 1.057116,0 1.810157,0.7672 1.810157,1.84416 0,1.66171 -2.068218,2.35565 -3.158602,1.0598 z m 1.896589,-1.1054 c 0.07838,-0.54942 -0.532784,-0.81305 -0.94026,-0.40557 -0.414922,0.41493 -0.150583,0.98399 0.419468,0.90305 0.285739,-0.0406 0.482405,-0.22844 0.520792,-0.49748 z m -10.502765,-2.45322 c -0.485543,-0.19537 -0.904265,-1.30133 -0.767894,-2.02826 0.25675,-1.3686 2.189946,-1.86355 3.108366,-0.79582 1.043756,1.21344 0.259898,2.97693 -1.308707,2.94429 -0.425115,-0.009 -0.889402,-0.063 -1.031765,-0.12021 z m 1.514944,-1.40683 c 0.06786,-0.1767 -0.0267,-0.47125 -0.210036,-0.65458 -0.30865,-0.30866 -0.357967,-0.30866 -0.666628,0 -0.416348,0.41635 -0.225243,0.97584 0.333314,0.97584 0.231043,0 0.475552,-0.14457 0.54335,-0.32126 z m 2.965248,1.40683 c -0.485553,-0.19537 -0.904266,-1.30133 -0.767895,-2.02826 0.25675,-1.3686 2.189946,-1.86355 3.108366,-0.79582 1.043756,1.21344 0.259898,2.97693 -1.308707,2.94429 -0.425115,-0.009 -0.889402,-0.063 -1.031764,-0.12021 z m 1.514943,-1.40683 c 0.06776,-0.1767 -0.0267,-0.47125 -0.210035,-0.65458 -0.308651,-0.30866 -0.357978,-0.30866 -0.666628,0 -0.416349,0.41635 -0.225244,0.97584 0.333314,0.97584 0.231043,0 0.475551,-0.14457 0.543349,-0.32126 z m 2.965238,1.40683 c -0.485543,-0.19537 -0.904255,-1.30133 -0.767884,-2.02826 0.256749,-1.3686 2.189945,-1.86355 3.108365,-0.79582 1.043756,1.21344 0.259899,2.97693 -1.308707,2.94429 -0.425115,-0.009 -0.889412,-0.063 -1.031774,-0.12021 z m 1.514953,-1.40683 c 0.06776,-0.1767 -0.0267,-0.47125 -0.210035,-0.65458 -0.308651,-0.30866 -0.357978,-0.30866 -0.666628,0 -0.416349,0.41635 -0.225253,0.97584 0.333314,0.97584 0.231043,0 0.475551,-0.14457 0.543349,-0.32126 z m 2.196598,1.04327 c -1.069645,-1.06965 -0.335985,-2.97821 1.161158,-3.02064 1.532228,-0.0435 2.41653,1.31863 1.724692,2.6565 -0.360724,0.69756 -0.684477,0.864 -1.680629,0.864 -0.477371,0 -0.866921,-0.16157 -1.205221,-0.49986 z m 1.876308,-1.04327 c 0.06776,-0.1767 -0.0267,-0.47125 -0.210045,-0.65458 -0.30865,-0.30866 -0.357967,-0.30866 -0.666628,0 -0.416348,0.41635 -0.225243,0.97584 0.333314,0.97584 0.231043,0 0.475552,-0.14457 0.543359,-0.32126 z m -14.745069,-2.8411 c -0.603032,-0.42238 -0.785945,-1.51026 -0.384459,-2.28664 0.818101,-1.58204 3.385692,-0.95239 3.385692,0.83026 0,1.08245 -0.659183,1.7677 -1.70045,1.7677 -0.470968,0 -1.056322,-0.14009 -1.300783,-0.31132 z m 1.65119,-1.16016 c 0.309962,-0.4914 -0.19501,-1.0316 -0.707791,-0.75717 -0.442562,0.23686 -0.496291,0.6113 -0.138984,0.9686 0.297042,0.29703 0.568846,0.22917 0.846775,-0.21143 z m 2.829001,1.16016 c -0.603032,-0.42238 -0.785944,-1.51026 -0.384459,-2.28664 0.818101,-1.58204 3.385692,-0.95239 3.385692,0.83026 0,1.08245 -0.659182,1.7677 -1.70045,1.7677 -0.470968,0 -1.056322,-0.14009 -1.300783,-0.31132 z m 1.65119,-1.16016 c 0.309962,-0.4914 -0.19501,-1.0316 -0.707791,-0.75717 -0.442562,0.23686 -0.496291,0.6113 -0.138984,0.9686 0.297042,0.29703 0.568855,0.22917 0.846775,-0.21143 z m 2.829001,1.16016 c -0.603032,-0.42238 -0.785944,-1.51026 -0.384459,-2.28664 0.818092,-1.58204 3.385692,-0.95239 3.385692,0.83026 0,1.08245 -0.659182,1.7677 -1.70045,1.7677 -0.470967,0 -1.056322,-0.14009 -1.300783,-0.31132 z m 1.65119,-1.16016 c 0.309962,-0.4914 -0.19501,-1.0316 -0.707791,-0.75717 -0.442562,0.23686 -0.496291,0.6113 -0.138984,0.9686 0.297042,0.29703 0.568846,0.22917 0.846775,-0.21143 z m 2.179409,0.93491 c -1.235704,-1.57094 0.393043,-3.53757 2.318009,-2.79889 0.542077,0.20801 0.97684,1.26711 0.833596,2.03065 -0.163073,0.86929 -0.788337,1.30481 -1.873227,1.30481 -0.682525,0 -0.941964,-0.10889 -1.278378,-0.53657 z m 1.905298,-0.9639 c 0.171112,-0.27934 0.133921,-0.41878 -0.172395,-0.64628 -0.656004,-0.48722 -1.268568,0.30432 -0.68619,0.8867 0.303004,0.303 0.571803,0.22773 0.858585,-0.24042 z m -15.157006,-5.42346 v -2.44374 h 8.349445 8.349446 v 2.44374 2.44374 H 26.00954 17.660095 Z m 15.477017,0 v -1.42551 h -7.229393 -7.229402 v 1.42551 1.42552 h 7.229402 7.229393 z m 28.262964,21.18172 c -17.567055,-0.0982 -18.698822,-0.12604 -19.040807,-0.46752 -0.304727,-0.30429 -0.374247,-0.79954 -0.429422,-3.05917 -0.06116,-2.50314 -0.03455,-2.73585 0.371166,-3.25162 l 0.436982,-0.55554 h 18.652683 c 10.258974,0 18.591881,-0.0608 18.517575,-0.13511 -0.07436,-0.0743 -8.268478,-0.14717 -18.209269,-0.1619 -15.328089,-0.0228 -18.177399,-0.0718 -18.753748,-0.3231 -0.644539,-0.28101 -0.699694,-0.2715 -1.069137,0.18447 -0.349096,0.43085 -0.389531,0.83607 -0.389531,3.90351 0,1.88251 0.0556,3.5677 0.123603,3.74486 0.111689,0.29106 1.97278,0.31748 19.295366,0.27385 l 19.171761,-0.0482 z m 32.626911,-16.5997 v -16.80072 h -1.562213 c -2.05502,0 -2.307051,0.2148 -2.307051,1.96619 v 1.29212 h 1.425516 c 1.384784,0 1.425517,0.0145 1.425517,0.50912 0,0.49457 -0.04077,0.50911 -1.425517,0.50911 h -1.425516 v 0.9164 0.91641 h 1.425516 1.425517 v 0.61094 0.61093 h -1.425517 -1.425516 v 0.9164 0.91641 h 1.425516 1.425517 v 0.61093 0.61093 h -1.425517 -1.425516 v 0.91641 0.9164 h 1.425516 1.425517 v 0.61094 0.61093 h -1.425517 -1.425516 v 0.9164 0.91641 h 1.425516 1.425517 v 0.61094 0.61092 h -1.425517 -1.425516 v 0.91641 0.9164 h 1.425516 1.425517 v 0.61094 0.61094 h -1.425517 -1.425516 v 0.9164 0.9164 h 1.425516 1.425517 v 0.61094 0.61092 h -1.425517 -1.425516 v 0.91641 0.9164 h 1.425516 1.425517 v 0.61094 0.61094 h -1.425517 -1.425516 v 0.9164 0.9164 h 1.425516 c 1.384784,0 1.425517,0.0145 1.425517,0.50911 0,0.49457 -0.04077,0.50912 -1.425517,0.50912 h -1.425516 v 0.9164 0.9164 h 1.425516 1.425517 v 0.61094 0.61094 h -1.425517 -1.425516 v 1.01822 1.01822 h 1.934632 1.934632 z m 23.419173,10.69136 v -6.10935 h -2.60207 c -3.6833,0 -3.50728,0.19419 -3.50728,-3.86925 0,-4.06345 -0.17602,-3.86926 3.50728,-3.86926 h 2.60207 v -6.36951 c 0,-5.43531 -0.0465,-6.43588 -0.31701,-6.82211 l -0.31703,-0.4526 H 106.03049 95.248851 v 16.80072 16.80071 h 11.098659 11.09865 z m 4.0729,0 v -6.10935 h -1.42552 -1.42551 v 6.10935 6.10935 h 1.42551 1.42552 z m 3.66561,0 v -6.10935 h -1.32369 -1.3237 v 6.10935 6.10935 h 1.3237 1.32369 z m 25.04835,5.98065 c 0,-0.0708 -0.18814,-0.43309 -0.41808,-0.80515 -0.9117,-1.47516 -3.6134,-2.93033 -7.04423,-3.79413 -1.56187,-0.39325 -2.32202,-0.45263 -5.6728,-0.44315 -3.52565,0.01 -4.0501,0.0591 -5.90571,0.5536 -1.12004,0.29847 -2.63211,0.84094 -3.36015,1.20549 l -1.32368,0.66283 -0.0602,1.37461 -0.0602,1.3746 h 11.92254 c 6.55739,0 11.92255,-0.0579 11.92255,-0.1287 z m 34.21236,-6.01818 c 0,-5.80086 -0.0237,-6.19592 -0.42175,-7.01807 -0.23195,-0.47916 -0.72388,-1.05793 -1.09317,-1.28617 -0.65426,-0.40436 -0.95779,-0.41496 -11.86866,-0.41496 h -11.19724 l -0.67126,0.4582 c -0.96096,0.65593 -1.42543,1.65024 -1.42543,3.0515 v 1.17412 h 8.83677 c 7.20624,0 8.85613,-0.0504 8.94169,-0.27338 0.24435,-0.63677 1.47929,-0.94848 3.75768,-0.94848 1.97951,0 2.30786,0.052 2.92207,0.46226 1.1851,0.79171 1.43572,1.54997 1.36464,4.1289 -0.0672,2.43806 -0.27349,3.01333 -1.32841,3.70454 -0.44816,0.29364 -1.00212,0.35921 -3.03477,0.35921 -2.25925,0 -2.5432,-0.0419 -3.1063,-0.4582 l -0.61975,-0.4582 h -8.74935 -8.74937 l -0.62655,0.52722 c -0.57968,0.48776 -0.62657,0.62491 -0.62657,1.8328 v 1.30559 h 13.84786 13.84787 z m 7.14991,5.52161 c 1.34914,-0.86574 2.35389,-2.03875 3.10602,-3.62615 l 0.63907,-1.34882 0.0606,-7.17848 0.0606,-7.17849 h -8.25733 -8.25733 v 1.93462 1.93464 h 1.68783 c 2.00326,0 3.11988,0.46214 4.10424,1.69866 l 0.62274,0.78226 0.0588,6.80352 0.0587,6.80351 h 2.57085 c 2.52225,0 2.58925,-0.0119 3.54523,-0.62527 z M 78.753603,238.54533 v -1.32369 H 60.93466 c -11.743531,0 -17.818934,0.0694 -17.818934,0.20364 0,0.133 3.46196,0.20365 9.978604,0.20365 h 9.978604 v 0.61093 0.61094 H 53.09433 c -9.540463,0 -9.978604,0.0164 -9.978604,0.37335 0,0.20534 0.06106,0.43444 0.135759,0.50911 0.07465,0.0746 8.093193,0.13576 17.818943,0.13576 h 17.683175 z m 103.060057,-1.71532 c 0.57097,-0.57096 0.59527,-0.67115 0.59527,-2.45385 0,-1.9317 -0.28293,-2.89078 -0.92553,-3.13737 -0.18131,-0.0696 -1.24273,-0.12651 -2.35871,-0.12651 -1.88278,0 -2.06509,0.036 -2.5289,0.49987 -0.46701,0.46701 -0.49944,0.63761 -0.49339,2.59647 0.009,2.9334 0.27707,3.20089 3.2166,3.21047 1.83149,0.006 1.92066,-0.015 2.49466,-0.58908 z m -3.70276,-0.63909 c -0.66685,-0.25823 -0.99674,-0.96806 -0.99674,-2.14462 0,-1.30653 0.63938,-1.91579 2.01053,-1.91579 1.30274,0 1.60521,0.12744 1.96807,0.82915 0.45525,0.88035 0.3806,2.10672 -0.16698,2.74333 -0.52404,0.60922 -1.89017,0.84603 -2.81488,0.48793 z m 1.95611,-1.92213 v -0.81458 h -0.81458 c -0.74321,0 -0.82037,0.0505 -0.88068,0.57723 -0.10971,0.95816 0.0799,1.18554 0.92995,1.11523 0.74654,-0.0617 0.76531,-0.0833 0.76531,-0.87788 z m -101.313407,1.22075 v -0.51023 l -17.768028,0.052 -17.768028,0.052 -0.06508,0.4582 -0.06508,0.45821 H 60.920494 78.753592 Z M 139.407,233.82268 c 0.37845,-0.28866 0.85939,-0.90204 1.06874,-1.36306 0.4003,-0.88149 0.5245,-2.36555 0.19796,-2.36555 -0.1054,0 -0.67327,0.54715 -1.26193,1.2159 -1.26254,1.43433 -1.94799,1.75092 -2.91557,1.34664 -0.8543,-0.35696 -1.33292,-1.04388 -1.33292,-1.91306 0,-0.55207 0.23859,-0.94932 1.22648,-2.04205 0.91088,-1.00754 1.14147,-1.3746 0.89607,-1.4264 -1.86652,-0.39408 -4.28922,2.25164 -3.83309,4.18594 0.6764,2.86832 3.71162,4.07218 5.95426,2.36164 z m 35.46706,-0.97941 v -0.50911 h -8.55309 -8.5531 v 0.50911 0.50912 h 8.5531 8.55309 z M 72.642866,232.18143 c -0.0057,-0.61128 -3.247541,-1.93539 -5.963887,-2.43582 -2.856919,-0.52634 -8.557663,-0.4705 -11.27643,0.11045 -2.575726,0.55037 -4.1107,1.12894 -4.989221,1.88054 l -0.679136,0.58101 11.455026,0.009 c 6.300273,0.005 11.454413,-0.0605 11.453648,-0.14447 z m 75.719994,-12.06631 c 10.94734,-11.49494 10.95691,-11.50576 10.33399,-11.66641 -0.34292,-0.0884 -0.72617,-0.18007 -0.85164,-0.20363 -0.12549,-0.0236 -5.05877,5.02918 -10.96285,11.22832 l -10.73467,11.27117 0.46336,0.49324 c 0.25486,0.27128 0.53784,0.46842 0.62885,0.43808 0.091,-0.0303 5.09633,-5.23268 11.12296,-11.56077 z m -86.030448,7.40562 c 0.737795,-0.7378 0.708987,-1.56244 -0.08221,-2.35364 -0.520419,-0.52042 -0.723171,-0.59829 -1.272081,-0.4885 -0.82951,0.1659 -1.321944,0.65833 -1.48785,1.48785 -0.109774,0.5489 -0.03187,0.75165 0.488501,1.27207 0.791199,0.7912 1.615846,0.82 2.353641,0.0822 z m 64.379598,-2.31415 v -2.54556 h -7.12758 -7.12757 l -0.0579,2.32945 c -0.0319,1.28121 -0.0114,2.45081 0.0456,2.59913 0.0837,0.21805 1.45854,0.2594 7.18551,0.21609 l 7.08205,-0.0536 z m -12.23477,1.54846 c -1.72682,-0.76464 -1.12819,-3.38128 0.77358,-3.38128 1.58042,0 2.37836,1.76038 1.32985,2.93383 -0.57956,0.64862 -1.30204,0.80231 -2.10343,0.44745 z m 1.10524,-1.11779 c 0.4122,-0.26122 0.19343,-0.93054 -0.3285,-1.00499 -0.54726,-0.0781 -0.8159,0.44516 -0.45305,0.88237 0.288,0.34703 0.39978,0.36457 0.78155,0.12262 z m -51.627915,-2.65138 c 0.982782,-0.23621 0.979815,-0.23257 0.824255,-1.01039 -0.09504,-0.4749 -0.218161,-0.62146 -0.459617,-0.54686 -0.181429,0.0561 -1.200445,0.20008 -2.264491,0.32003 -8.300932,0.93585 -16.488931,-3.74094 -20.052301,-11.45339 -1.124541,-2.43391 -1.563897,-4.39148 -1.680954,-7.48964 -0.166605,-4.40921 0.7301,-7.84522 2.983479,-11.43224 2.054867,-3.271 5.575159,-6.27202 8.952831,-7.63223 1.352579,-0.5447 1.44951,-0.6242 1.336682,-1.09639 -0.199603,-0.83537 -0.386564,-0.86738 -1.746053,-0.29897 -8.445381,3.5311 -13.86766,12.50259 -13.00273,21.51377 0.942624,9.82068 8.255645,17.63287 18.004306,19.23325 1.741029,0.28582 5.719627,0.22592 7.104593,-0.10694 z m 57.564495,-7.87311 c 0,-7.49909 0.0239,-7.41074 -2.01218,-7.41654 l -1.09578,-0.003 0.12622,0.76367 c 0.0694,0.42001 0.12723,3.48997 0.12847,6.82211 l 0.002,6.05844 h 1.42553 1.42551 z m 3.66561,-0.22514 c 0,-7.43447 0.0571,-7.19445 -1.71163,-7.19462 l -1.03758,-10e-5 0.0563,6.82222 0.0562,6.8222 h 1.31838 1.31837 z m -60.584398,5.22086 c 3.421983,-0.89892 6.607382,-2.79782 9.020341,-5.37728 1.573018,-1.68157 2.309416,-2.76102 3.306582,-4.847 1.298486,-2.71631 1.681558,-4.47154 1.700392,-7.79134 0.01828,-3.22678 -0.365968,-5.09889 -1.590732,-7.74972 -2.069606,-4.47941 -6.087214,-8.21272 -10.579808,-9.83115 -0.909223,-0.32755 -1.950959,-0.65985 -2.314976,-0.73845 -0.56962,-0.123 -0.661842,-0.0875 -0.661842,0.25495 0,0.21882 -0.133395,0.77595 -0.296439,1.23805 l -0.296429,0.84019 h 1.375749 c 2.025284,0 2.43255,0.6395 1.150334,1.8063 -0.645726,0.58759 -0.702202,0.72475 -0.58925,1.4311 0.07838,0.49031 0.02441,0.96195 -0.14509,1.26656 -0.148506,0.26694 -0.244011,0.89772 -0.212227,1.40174 0.04556,0.72278 -0.09035,1.19609 -0.643017,2.2401 -0.528611,0.99844 -0.760736,1.77403 -0.944711,3.15649 -0.407476,3.0619 -0.804683,3.76624 -1.960348,3.47619 -0.571831,-0.14352 -0.79985,-0.82711 -0.611233,-1.83248 0.161226,-0.8594 -0.0335,-0.99426 -1.186204,-0.82141 -0.871027,0.13062 -0.899308,0.15842 -1.026884,1.00917 -0.305272,2.03567 0.304249,2.51633 3.306257,2.60731 1.753566,0.0532 2.170996,0.13904 3.218159,0.66218 0.970953,0.48505 1.29171,0.77653 1.66145,1.50975 0.560394,1.11129 0.567668,1.80076 0.04508,4.27677 -0.574626,2.72271 -0.694718,4.39899 -0.41252,5.75829 0.210122,1.01216 0.375013,1.28185 1.253667,2.05048 0.745231,0.6519 0.9757,0.97887 0.874989,1.24134 -0.186923,0.48712 -0.924622,0.73324 -2.181801,0.72791 -2.163053,-0.01 -3.136293,-0.87082 -5.100211,-4.51551 -0.918018,-1.70367 -1.015111,-1.80702 -2.561628,-2.72696 -1.685338,-1.00251 -2.22929,-1.56436 -2.624794,-2.71114 -0.431948,-1.25247 -0.301875,-2.48862 0.374027,-3.5544 l 0.612765,-0.96623 -0.614047,-0.21405 c -0.390182,-0.13602 -0.924009,-0.65594 -1.464248,-1.42611 -0.674074,-0.96095 -0.886857,-1.14659 -1.027065,-0.89604 -0.09728,0.17381 -0.344924,0.31602 -0.550327,0.31602 -0.467656,0 -1.750485,-1.40003 -2.200732,-2.40179 -0.186568,-0.41509 -0.651659,-1.08985 -1.033544,-1.49948 -0.506053,-0.54283 -0.721735,-0.98792 -0.79539,-1.64137 -0.07628,-0.67675 -0.307866,-1.13334 -0.944433,-1.86207 -0.824562,-0.94396 -0.858508,-0.96012 -1.522619,-0.72547 -0.404797,0.14303 -1.113832,0.18893 -1.754725,0.11361 l -1.075463,-0.1264 -0.555849,1.23861 c -1.69421,3.77521 -2.063566,8.15662 -1.028921,12.20547 0.185152,0.72455 0.773301,2.23376 1.306994,3.3538 2.597068,5.45041 7.563157,9.23147 13.645402,10.38928 2.055442,0.39126 5.5054,0.24894 7.655293,-0.31581 z m 130.841938,-1.92766 v -1.93463 h -8.24762 -8.24762 v 1.93463 1.93463 h 8.24762 8.24762 z M 65.765535,216.5998 c -1.235932,-1.31559 -1.492711,-4.60181 -0.655688,-8.39148 0.510407,-2.31093 0.451347,-3.3813 -0.226363,-4.10269 -0.637122,-0.67819 -2.193899,-1.09636 -4.081558,-1.09636 h -1.586149 l -1.329743,1.31025 c -1.272263,1.25361 -1.329706,1.35264 -1.328978,2.291 9.57e-4,1.37273 0.526945,2.11841 2.175312,3.08454 1.748724,1.02494 2.233463,1.55736 3.344184,3.67314 1.119,2.13152 1.890349,3.02331 2.931014,3.3887 1.132954,0.39779 1.255419,0.37241 0.757969,-0.1571 z M 185.0572,214.76977 c 5.7e-4,-0.19375 -1.23409,-6.0344 -1.30919,-6.19271 -0.0572,-0.12063 -2.15366,0.4267 -2.15366,0.56227 0,0.0937 0.27492,1.4282 0.61093,2.96554 0.33602,1.53735 0.61094,2.82313 0.61094,2.85732 0,0.0342 0.50401,0.0621 1.12004,0.0621 0.75981,0 1.12033,-0.0818 1.12094,-0.25456 z m 6.80126,-0.10182 c 0.0601,-0.19601 0.52731,-2.32664 1.03819,-4.73474 0.51087,-2.40811 0.97407,-4.52617 1.02931,-4.70681 0.0787,-0.25734 -0.13202,-0.37456 -0.97355,-0.54156 -0.59069,-0.11722 -1.10858,-0.17921 -1.15086,-0.13775 -0.0738,0.0724 -2.24914,10.01088 -2.25984,10.32451 -0.003,0.084 0.49264,0.15273 1.10112,0.15273 0.87624,0 1.12905,-0.0741 1.21563,-0.35638 z m -9.22808,-7.10313 c 0.88705,-0.14184 0.89606,-0.16929 0.52615,-1.60269 -0.24597,-0.95309 -0.3076,-1.02206 -0.96339,-1.0782 -0.38534,-0.0329 -0.86917,0.0635 -1.07518,0.21421 -0.34362,0.25153 -0.35387,0.37936 -0.12412,1.54721 0.19023,0.96687 0.32131,1.24583 0.5451,1.15995 0.16207,-0.0622 0.6532,-0.17041 1.09144,-0.24048 z m -19.08045,-0.38411 c 1.07744,-0.51129 1.34563,-1.2073 1.34476,-3.4901 -5.7e-4,-2.2342 -0.35176,-3.16313 -1.33628,-3.53744 -0.83004,-0.31558 -4.29115,-0.24723 -4.9586,0.0979 -0.897,0.46386 -1.23933,1.43181 -1.23845,3.50172 5.7e-4,2.08217 0.37706,2.9554 1.47966,3.43473 0.911,0.39604 3.86897,0.39174 4.70891,-0.007 z m -3.93884,-1.40737 c -0.64251,-0.35583 -0.79313,-0.76706 -0.81068,-2.2133 -0.0121,-0.99248 0.0652,-1.25973 0.48555,-1.68007 0.43372,-0.43371 0.68501,-0.49986 1.89912,-0.49986 1.90943,0 2.28486,0.38013 2.28486,2.31339 0,1.18382 -0.0681,1.4389 -0.49986,1.8706 -0.41805,0.41806 -0.69299,0.49867 -1.68008,0.49263 -0.64911,-0.004 -1.40463,-0.1315 -1.67891,-0.28339 z m 2.5971,-2.11324 0.0619,-1.08016 -1.08017,0.0619 -1.08015,0.0619 -0.0645,0.78509 c -0.10132,1.2335 0.0286,1.38424 1.13153,1.31352 l 0.9694,-0.0621 z m 32.20508,-0.80356 c 0.41402,-1.49076 0.23782,-1.93688 -0.84161,-2.1311 -0.79389,-0.14284 -0.99089,0.0622 -1.28801,1.34031 l -0.2662,1.14516 0.64324,0.18629 c 1.26451,0.36619 1.52288,0.28649 1.75258,-0.54066 z m -136.930215,-0.7719 c -0.544124,-0.50428 -0.556451,-0.56574 -0.487936,-2.43391 0.0445,-1.21389 0.167179,-2.01347 0.334559,-2.18094 0.176012,-0.1761 0.853617,-0.2644 2.028863,-0.2644 1.661345,0 1.779015,0.0287 2.011139,0.49136 0.222602,0.44365 0.260884,0.34581 0.394231,-1.00746 0.109889,-1.11516 0.322394,-1.82812 0.830179,-2.78529 0.375377,-0.70756 0.682496,-1.3322 0.682496,-1.3881 0,-0.0559 -0.338807,0.0399 -0.752906,0.21295 -1.641314,0.68579 -1.758879,-0.30016 -0.180951,-1.51753 1.267726,-0.97804 1.362685,-1.14845 1.19968,-2.15291 -0.09025,-0.55633 -0.01732,-0.87587 0.297156,-1.30122 l 0.416827,-0.56378 -1.120799,0.19309 c -0.933676,0.16087 -1.175304,0.13861 -1.447261,-0.13335 -0.299511,-0.29951 -0.289462,-0.44132 0.121785,-1.71819 0.246529,-0.76547 0.448238,-1.53378 0.448238,-1.70737 0,-0.70603 -3.986092,-0.61122 -7.013969,0.16683 -3.680475,0.94572 -8.024621,3.94112 -10.258467,7.07342 -0.756974,1.06144 -0.608104,1.31258 0.626958,1.05763 2.0537,-0.42392 2.010651,-0.43442 3.01869,0.73669 1.156287,1.34335 1.408088,1.80667 1.408088,2.59099 0,0.44901 0.221253,0.8355 0.81458,1.42293 0.460602,0.45603 0.821565,1.01253 0.830657,1.28065 0.01512,0.44609 0.02814,0.44101 0.220612,-0.0859 0.396029,-1.08433 0.825824,-0.77276 2.807869,2.03541 1.141864,1.61781 1.617023,2.12817 2.115936,2.27265 1.088681,0.31526 1.238642,0.24776 0.653746,-0.2943 z m 100.492905,-2.91755 0.6252,-0.38021 -9.28618,-8.83473 c -5.1074,-4.8591 -9.36344,-8.86212 -9.45787,-8.89561 -0.0945,-0.0335 -0.35019,0.19561 -0.56833,0.50911 l -0.39664,0.57 9.15777,8.70583 c 5.03676,4.78821 9.18995,8.70583 9.2293,8.70583 0.0393,0 0.35288,-0.1711 0.69675,-0.38022 z m -20.9674,-3.58572 c 0.81667,-1.80115 1.29124,-4.33165 1.12399,-5.99348 -0.18467,-1.83508 -0.43058,-2.70902 -1.27503,-4.53147 l -0.72258,-1.55944 2.07896,-2.57818 c 1.14344,-1.41799 2.20728,-2.82397 2.3641,-3.12439 0.72693,-1.39257 0.5053,-3.00473 -0.58354,-4.24485 -0.79147,-0.90143 -1.6655,-1.29069 -2.89812,-1.29069 -1.58546,0 -2.28155,0.53282 -4.77681,3.6565 -1.25662,1.57308 -2.34508,2.85915 -2.4188,2.85794 -0.0737,-9.5e-4 -0.59225,-0.14269 -1.15227,-0.3144 -1.22952,-0.37697 -4.28219,-0.42153 -5.70206,-0.0833 -1.66915,0.39769 -4.26135,1.74237 -5.37928,2.79043 l -1.03418,0.96955 9.71247,7.47125 c 5.34186,4.10918 9.79749,7.41869 9.90142,7.35447 0.10392,-0.0642 0.4467,-0.68524 0.76173,-1.38001 z m -3.95232,-14.73489 c -0.31875,-0.35222 -0.24579,-0.49261 1.32282,-2.54557 0.91308,-1.19503 1.72379,-2.17278 1.80156,-2.17278 0.0778,0 0.30107,0.17642 0.49621,0.39205 0.34198,0.37789 0.29472,0.46989 -1.30764,2.54556 -0.91435,1.18444 -1.73291,2.15351 -1.81902,2.15351 -0.0861,0 -0.30838,-0.16775 -0.49393,-0.37277 z m -3.85308,13.02937 c 0.39116,-0.11392 -0.0613,-0.53082 -3.23749,-2.98346 -2.0307,-1.56807 -3.7703,-2.88158 -3.86576,-2.91891 -0.26433,-0.10338 -0.20747,0.80685 0.11795,1.88813 0.55104,1.83099 1.90186,3.24475 3.71989,3.89323 0.80616,0.28755 2.48058,0.34961 3.26541,0.12101 z"
       id="path177"
       inkscape:connector-curvature="0" />
  </g>
</svg>
